<svg viewBox="-487.5 -487.5 975 975" width="975" height="975" style="width: 100%; height: auto; font: 10px sans-serif;" xmlns="http://www.w3.org/2000/svg" xmlns:xlink="http://www.w3.org/1999/xlink"><g><g fill="#2D7DD2"><path d="M0.8999962500046793,-179.9977500046875A180,180,0,0,1,126.64123617521466,-127.9140230780562A180,180,0,0,0,0.8999962500046793,-179.9977500046875Z"/><path d="M127.91402307805623,-126.64123617521466A180,180,0,0,1,179.9977500046875,-0.8999962500046874A180,180,0,0,0,127.91402307805623,-126.64123617521466Z"/><path d="M179.9977500046875,0.8999962500046874A180,180,0,0,1,127.91402307805623,126.64123617521466A180,180,0,0,0,179.9977500046875,0.8999962500046874Z"/><path d="M126.64123617521466,127.9140230780562A180,180,0,0,1,0.8999962500046793,179.9977500046875A180,180,0,0,0,126.64123617521466,127.9140230780562Z"/><path d="M-0.8999962500046573,179.9977500046875A180,180,0,0,1,-126.64123617521466,127.91402307805623A180,180,0,0,0,-0.8999962500046573,179.9977500046875Z"/><path d="M-127.9140230780562,126.6412361752147A180,180,0,0,1,-179.9977500046875,0.8999962500046904A180,180,0,0,0,-127.9140230780562,126.6412361752147Z"/><path d="M-179.9977500046875,-0.8999962500046462A180,180,0,0,1,-127.91402307805623,-126.64123617521466A180,180,0,0,0,-179.9977500046875,-0.8999962500046462Z"/><path d="M-126.6412361752147,-127.91402307805619A180,180,0,0,1,-0.8999962500047014,-179.9977500046875A180,180,0,0,0,-126.6412361752147,-127.91402307805619Z"/></g><g fill="#97CC04"><path d="M0.8999962500047037,-229.52514160444088A229.52690609553525,229.52690609553525,0,0,1,161.66239062988194,-162.9351775327235L126.64123617521466,-127.9140230780562A180,180,0,0,0,0.8999962500046793,-179.9977500046875Z"/><path d="M134.4796310940622,-133.20684419122063A189.28506153043136,189.28506153043136,0,0,1,189.28292190614866,-0.8999962500046874L179.9977500046875,-0.8999962500046874A180,180,0,0,0,127.91402307805623,-126.64123617521466Z"/><path d="M216.7149467557354,0.8999962500046874A216.7168155464436,216.7168155464436,0,0,1,153.87700188688288,152.60421498404133L127.91402307805623,126.64123617521466A180,180,0,0,0,179.9977500046875,0.8999962500046874Z"/><path d="M126.64123617521466,127.9140230780562A180,180,0,0,1,0.8999962500046793,179.9977500046875A180,180,0,0,0,126.64123617521466,127.9140230780562Z"/><path d="M-0.8999962500046573,179.9977500046875A180,180,0,0,1,-126.64123617521466,127.91402307805623A180,180,0,0,0,-0.8999962500046573,179.9977500046875Z"/><path d="M-155.80978551698195,154.5369986141405A219.45016109247854,219.45016109247854,0,0,1,-219.44831557855431,0.899996250004672L-179.9977500046875,0.8999962500046904A180,180,0,0,0,-127.9140230780562,126.6412361752147Z"/><path d="M-179.9977500046875,-0.8999962500046462A180,180,0,0,1,-127.91402307805623,-126.64123617521466A180,180,0,0,0,-179.9977500046875,-0.8999962500046462Z"/><path d="M-143.42745185969954,-144.70023876254106A203.7390317168088,203.7390317168088,0,0,1,-0.8999962500047393,-203.73704388660596L-0.8999962500047014,-179.9977500046875A180,180,0,0,0,-126.6412361752147,-127.91402307805619Z"/></g><g fill="#EEB902"><path d="M0.8999962500046914,-326.8717613689181A326.8730003742569,326.8730003742569,0,0,1,230.49684559093217,-231.76963249377368L161.66239062988194,-162.9351775327235A229.52690609553525,229.52690609553525,0,0,0,0.8999962500047037,-229.52514160444088Z"/><path d="M201.72294139895772,-200.4501544961161A284.3807474569334,284.3807474569334,0,0,1,284.37932331819434,-0.8999962500046875L189.28292190614866,-0.8999962500046874A189.28506153043136,189.28506153043136,0,0,0,134.4796310940622,-133.20684419122063Z"/><path d="M246.96455639247006,0.8999962500046874A246.9661962847943,246.9661962847943,0,0,1,175.2667059892639,173.99391908642232L153.87700188688288,152.60421498404133A216.7168155464436,216.7168155464436,0,0,0,216.7149467557354,0.8999962500046874Z"/><path d="M302.0872374203063,303.36002432314774A428.11681042628226,428.11681042628226,0,0,1,0.8999962500047495,428.11586442962295L0.8999962500046793,179.9977500046875A180,180,0,0,0,126.64123617521466,127.9140230780562Z"/><path d="M-0.899996250004687,375.9281886770029A375.9292659998983,375.9292659998983,0,0,1,-265.1849780012638,266.45776490410543L-126.64123617521466,127.91402307805623A180,180,0,0,0,-0.8999962500046573,179.9977500046875Z"/><path d="M-242.75066791781595,241.4778810149744A342.40247340524263,342.40247340524263,0,0,1,-342.401290594498,0.8999962500047556L-219.44831557855431,0.899996250004672A219.45016109247854,219.45016109247854,0,0,0,-155.80978551698195,154.5369986141405Z"/><path d="M-312.71648292530864,-0.8999962500046166A312.71777801465794,312.71777801465794,0,0,1,-221.76033911671374,-220.48755221387216L-127.91402307805623,-126.64123617521466A180,180,0,0,0,-179.9977500046875,-0.8999962500046462Z"/><path d="M-202.02122095559014,-203.29400785843166A286.60255991098796,286.60255991098796,0,0,1,-0.8999962500046359,-286.601146812572L-0.8999962500047393,-203.73704388660596A203.7390317168088,203.7390317168088,0,0,0,-143.42745185969954,-144.70023876254106Z"/></g><g fill="#F45D01"><path d="M0.8999962500046914,-326.8717613689181A326.8730003742569,326.8730003742569,0,0,1,230.49684559093217,-231.76963249377368A326.8730003742569,326.8730003742569,0,0,0,0.8999962500046914,-326.8717613689181Z"/><path d="M201.72294139895772,-200.4501544961161A284.3807474569334,284.3807474569334,0,0,1,284.37932331819434,-0.8999962500046875A284.3807474569334,284.3807474569334,0,0,0,201.72294139895772,-200.4501544961161Z"/><path d="M246.96455639247006,0.8999962500046874A246.9661962847943,246.9661962847943,0,0,1,175.2667059892639,173.99391908642232A246.9661962847943,246.9661962847943,0,0,0,246.96455639247006,0.8999962500046874Z"/><path d="M328.0182876358491,329.2910745386907A464.78877868812646,464.78877868812646,0,0,1,0.8999962500047256,464.7879073310214L0.8999962500047495,428.11586442962295A428.11681042628226,428.11681042628226,0,0,0,302.0872374203063,303.36002432314774Z"/><path d="M-0.899996250004687,375.9281886770029A375.9292659998983,375.9292659998983,0,0,1,-265.1849780012638,266.45776490410543A375.9292659998983,375.9292659998983,0,0,0,-0.899996250004687,375.9281886770029Z"/><path d="M-251.98101428671993,250.70822738387852A355.4561109883057,355.4561109883057,0,0,1,-355.45497161480336,0.8999962500046648L-342.401290594498,0.8999962500047556A342.40247340524263,342.40247340524263,0,0,0,-242.75066791781595,241.4778810149744Z"/><path d="M-332.4739315122365,-0.8999962500046587A332.47514964047065,332.47514964047065,0,0,1,-235.73096499147502,-234.45817808863336L-221.76033911671374,-220.48755221387216A312.71777801465794,312.71777801465794,0,0,0,-312.71648292530864,-0.8999962500046166Z"/><path d="M-202.02122095559014,-203.29400785843166A286.60255991098796,286.60255991098796,0,0,1,-0.8999962500046359,-286.601146812572A286.60255991098796,286.60255991098796,0,0,0,-202.02122095559014,-203.29400785843166Z"/></g><g fill="#49306B"><path d="M0.8999962500046914,-326.8717613689181A326.8730003742569,326.8730003742569,0,0,1,230.49684559093217,-231.76963249377368A326.8730003742569,326.8730003742569,0,0,0,0.8999962500046914,-326.8717613689181Z"/><path d="M201.72294139895772,-200.4501544961161A284.3807474569334,284.3807474569334,0,0,1,284.37932331819434,-0.8999962500046875A284.3807474569334,284.3807474569334,0,0,0,201.72294139895772,-200.4501544961161Z"/><path d="M246.96455639247006,0.8999962500046874A246.9661962847943,246.9661962847943,0,0,1,175.2667059892639,173.99391908642232A246.9661962847943,246.9661962847943,0,0,0,246.96455639247006,0.8999962500046874Z"/><path d="M328.0182876358491,329.2910745386907A464.78877868812646,464.78877868812646,0,0,1,0.8999962500047256,464.7879073310214A464.78877868812646,464.78877868812646,0,0,0,328.0182876358491,329.2910745386907Z"/><path d="M-0.899996250004687,375.9281886770029A375.9292659998983,375.9292659998983,0,0,1,-265.1849780012638,266.45776490410543A375.9292659998983,375.9292659998983,0,0,0,-0.899996250004687,375.9281886770029Z"/><path d="M-251.98101428671993,250.70822738387852A355.4561109883057,355.4561109883057,0,0,1,-355.45497161480336,0.8999962500046648A355.4561109883057,355.4561109883057,0,0,0,-251.98101428671993,250.70822738387852Z"/><path d="M-332.4739315122365,-0.8999962500046587A332.47514964047065,332.47514964047065,0,0,1,-235.73096499147502,-234.45817808863336A332.47514964047065,332.47514964047065,0,0,0,-332.4739315122365,-0.8999962500046587Z"/><path d="M-202.02122095559014,-203.29400785843166A286.60255991098796,286.60255991098796,0,0,1,-0.8999962500046359,-286.601146812572A286.60255991098796,286.60255991098796,0,0,0,-202.02122095559014,-203.29400785843166Z"/></g><g fill="#DE1A1A"><path d="M0.8999962500046914,-326.8717613689181A326.8730003742569,326.8730003742569,0,0,1,230.49684559093217,-231.76963249377368A326.8730003742569,326.8730003742569,0,0,0,0.8999962500046914,-326.8717613689181Z"/><path d="M223.93277397185744,-222.6599870690159A315.790052250392,315.790052250392,0,0,1,315.78876976082495,-0.8999962500046875L284.37932331819434,-0.8999962500046875A284.3807474569334,284.3807474569334,0,0,0,201.72294139895772,-200.4501544961161Z"/><path d="M246.96455639247006,0.8999962500046874A246.9661962847943,246.9661962847943,0,0,1,175.2667059892639,173.99391908642232A246.9661962847943,246.9661962847943,0,0,0,246.96455639247006,0.8999962500046874Z"/><path d="M328.0182876358491,329.2910745386907A464.78877868812646,464.78877868812646,0,0,1,0.8999962500047256,464.7879073310214A464.78877868812646,464.78877868812646,0,0,0,328.0182876358491,329.2910745386907Z"/><path d="M-0.899996250004674,378.97872705031773A378.97979570147174,378.97979570147174,0,0,1,-267.3420343713046,268.61482127414615L-265.1849780012638,266.45776490410543A375.9292659998983,375.9292659998983,0,0,0,-0.899996250004687,375.9281886770029Z"/><path d="M-251.98101428671993,250.70822738387852A355.4561109883057,355.4561109883057,0,0,1,-355.45497161480336,0.8999962500046648A355.4561109883057,355.4561109883057,0,0,0,-251.98101428671993,250.70822738387852Z"/><path d="M-345.62985794682834,-0.8999962500046137A345.6310297088425,345.6310297088425,0,0,1,-245.03360978616624,-243.76082288332466L-235.73096499147502,-234.45817808863336A332.47514964047065,332.47514964047065,0,0,0,-332.4739315122365,-0.8999962500046587Z"/><path d="M-234.82089580912898,-236.0936827119705A332.9881080836107,332.9881080836107,0,0,1,-0.8999962500047815,-332.98689183187435L-0.8999962500046359,-286.601146812572A286.60255991098796,286.60255991098796,0,0,0,-202.02122095559014,-203.29400785843166Z"/></g><g fill="#54DEFD"><path d="M0.8999962500046914,-326.8717613689181A326.8730003742569,326.8730003742569,0,0,1,230.49684559093217,-231.76963249377368A326.8730003742569,326.8730003742569,0,0,0,0.8999962500046914,-326.8717613689181Z"/><path d="M223.93277397185744,-222.6599870690159A315.790052250392,315.790052250392,0,0,1,315.78876976082495,-0.8999962500046875A315.790052250392,315.790052250392,0,0,0,223.93277397185744,-222.6599870690159Z"/><path d="M246.96455639247006,0.8999962500046874A246.9661962847943,246.9661962847943,0,0,1,175.2667059892639,173.99391908642232A246.9661962847943,246.9661962847943,0,0,0,246.96455639247006,0.8999962500046874Z"/><path d="M328.0182876358491,329.2910745386907A464.78877868812646,464.78877868812646,0,0,1,0.8999962500047256,464.7879073310214A464.78877868812646,464.78877868812646,0,0,0,328.0182876358491,329.2910745386907Z"/><path d="M-0.899996250004674,378.97872705031773A378.97979570147174,378.97979570147174,0,0,1,-267.3420343713046,268.61482127414615A378.97979570147174,378.97979570147174,0,0,0,-0.899996250004674,378.97872705031773Z"/><path d="M-251.98101428671993,250.70822738387852A355.4561109883057,355.4561109883057,0,0,1,-355.45497161480336,0.8999962500046648A355.4561109883057,355.4561109883057,0,0,0,-251.98101428671993,250.70822738387852Z"/><path d="M-345.62985794682834,-0.8999962500046137A345.6310297088425,345.6310297088425,0,0,1,-245.03360978616624,-243.76082288332466A345.6310297088425,345.6310297088425,0,0,0,-345.62985794682834,-0.8999962500046137Z"/><path d="M-234.82089580912898,-236.0936827119705A332.9881080836107,332.9881080836107,0,0,1,-0.8999962500047815,-332.98689183187435A332.9881080836107,332.9881080836107,0,0,0,-234.82089580912898,-236.0936827119705Z"/></g><g fill="#FF69EB"><path d="M0.8999962500047295,-357.87622333945416A357.87735500442176,357.87735500442176,0,0,1,252.4203108973387,-253.6930978001802L230.49684559093217,-231.76963249377368A326.8730003742569,326.8730003742569,0,0,0,0.8999962500046914,-326.8717613689181Z"/><path d="M236.35319701585968,-235.08041011301813A333.35511539276337,333.35511539276337,0,0,1,333.3539004800642,-0.8999962500046874L315.78876976082495,-0.8999962500046875A315.790052250392,315.790052250392,0,0,0,223.93277397185744,-222.6599870690159Z"/><path d="M246.96455639247006,0.8999962500046874A246.9661962847943,246.9661962847943,0,0,1,175.2667059892639,173.99391908642232A246.9661962847943,246.9661962847943,0,0,0,246.96455639247006,0.8999962500046874Z"/><path d="M344.0775749388593,345.3503618417008A487.5,487.5,0,0,1,0.8999962500047219,487.4991692369844L0.8999962500047256,464.7879073310214A464.78877868812646,464.78877868812646,0,0,0,328.0182876358491,329.2910745386907Z"/><path d="M-0.899996250004674,378.97872705031773A378.97979570147174,378.97979570147174,0,0,1,-267.3420343713046,268.61482127414615A378.97979570147174,378.97979570147174,0,0,0,-0.899996250004674,378.97872705031773Z"/><path d="M-272.04828708622097,270.77550018337945A383.83543610003784,383.83543610003784,0,0,1,-383.8343809676984,0.8999962500047184L-355.45497161480336,0.8999962500046648A355.4561109883057,355.4561109883057,0,0,0,-251.98101428671993,250.70822738387852Z"/><path d="M-365.2877963526437,-0.899996250004565A365.28890505656,365.28890505656,0,0,1,-258.9338713370657,-257.6610844342242L-245.03360978616624,-243.76082288332466A345.6310297088425,345.6310297088425,0,0,0,-345.62985794682834,-0.8999962500046137Z"/><path d="M-236.91588190360014,-238.1886688064417A335.95085510524507,335.95085510524507,0,0,1,-0.89999625000467,-335.9496495796585L-0.8999962500047815,-332.98689183187435A332.9881080836107,332.9881080836107,0,0,0,-234.82089580912898,-236.0936827119705Z"/></g><g fill="#D4AFCD"><path d="M0.8999962500047295,-357.87622333945416A357.87735500442176,357.87735500442176,0,0,1,252.4203108973387,-253.6930978001802A357.87735500442176,357.87735500442176,0,0,0,0.8999962500047295,-357.87622333945416Z"/><path d="M236.35319701585968,-235.08041011301813A333.35511539276337,333.35511539276337,0,0,1,333.3539004800642,-0.8999962500046874A333.35511539276337,333.35511539276337,0,0,0,236.35319701585968,-235.08041011301813Z"/><path d="M246.96455639247006,0.8999962500046874A246.9661962847943,246.9661962847943,0,0,1,175.2667059892639,173.99391908642232A246.9661962847943,246.9661962847943,0,0,0,246.96455639247006,0.8999962500046874Z"/><path d="M344.0775749388593,345.3503618417008A487.5,487.5,0,0,1,0.8999962500047219,487.4991692369844A487.5,487.5,0,0,0,344.0775749388593,345.3503618417008Z"/><path d="M-0.899996250004674,378.97872705031773A378.97979570147174,378.97979570147174,0,0,1,-267.3420343713046,268.61482127414615A378.97979570147174,378.97979570147174,0,0,0,-0.899996250004674,378.97872705031773Z"/><path d="M-272.04828708622097,270.77550018337945A383.83543610003784,383.83543610003784,0,0,1,-383.8343809676984,0.8999962500047184A383.83543610003784,383.83543610003784,0,0,0,-272.04828708622097,270.77550018337945Z"/><path d="M-365.2877963526437,-0.899996250004565A365.28890505656,365.28890505656,0,0,1,-258.9338713370657,-257.6610844342242A365.28890505656,365.28890505656,0,0,0,-365.2877963526437,-0.899996250004565Z"/><path d="M-236.91588190360014,-238.1886688064417A335.95085510524507,335.95085510524507,0,0,1,-0.89999625000467,-335.9496495796585A335.95085510524507,335.95085510524507,0,0,0,-236.91588190360014,-238.1886688064417Z"/></g></g><g text-anchor="middle"><g transform="&#10;          rotate(-67.5)&#10;          translate(180,0)&#10;        "><line x2="-5" stroke="#000"/><text transform="rotate(90)translate(0,16)"/></g><g transform="&#10;          rotate(-22.5)&#10;          translate(180,0)&#10;        "><line x2="-5" stroke="#000"/><text transform="rotate(90)translate(0,16)"/></g><g transform="&#10;          rotate(22.5)&#10;          translate(180,0)&#10;        "><line x2="-5" stroke="#000"/><text transform="rotate(-90)translate(0,-9)"/></g><g transform="&#10;          rotate(67.5)&#10;          translate(180,0)&#10;        "><line x2="-5" stroke="#000"/><text transform="rotate(-90)translate(0,-9)"/></g><g transform="&#10;          rotate(112.49999999999997)&#10;          translate(180,0)&#10;        "><line x2="-5" stroke="#000"/><text transform="rotate(-90)translate(0,-9)"/></g><g transform="&#10;          rotate(157.49999999999997)&#10;          translate(180,0)&#10;        "><line x2="-5" stroke="#000"/><text transform="rotate(-90)translate(0,-9)"/></g><g transform="&#10;          rotate(202.50000000000006)&#10;          translate(180,0)&#10;        "><line x2="-5" stroke="#000"/><text transform="rotate(90)translate(0,16)"/></g><g transform="&#10;          rotate(247.49999999999994)&#10;          translate(180,0)&#10;        "><line x2="-5" stroke="#000"/><text transform="rotate(90)translate(0,16)"/></g></g><g text-anchor="middle"><text y="-464.5585270610771" dy="-1em">Hours</text><g fill="none"><circle stroke="#000" stroke-opacity="0.5" r="262.8363083994133"/><text y="-262.8363083994133" dy="0.35em" stroke="#fff" stroke-width="5">2</text><text y="-262.8363083994133" dy="0.35em" stroke="none" stroke-width="5" fill="#000">2</text></g><g fill="none"><circle stroke="#000" stroke-opacity="0.5" r="325.2166201565704"/><text y="-325.2166201565704" dy="0.35em" stroke="#fff" stroke-width="5">4</text><text y="-325.2166201565704" dy="0.35em" stroke="none" stroke-width="5" fill="#000">4</text></g><g fill="none"><circle stroke="#000" stroke-opacity="0.5" r="377.4238665467441"/><text y="-377.4238665467441" dy="0.35em" stroke="#fff" stroke-width="5">6</text><text y="-377.4238665467441" dy="0.35em" stroke="none" stroke-width="5" fill="#000">6</text></g><g fill="none"><circle stroke="#000" stroke-opacity="0.5" r="423.2395303514619"/><text y="-423.2395303514619" dy="0.35em" stroke="#fff" stroke-width="5">8</text><text y="-423.2395303514619" dy="0.35em" stroke="none" stroke-width="5" fill="#000">8</text></g><g fill="none"><circle stroke="#000" stroke-opacity="0.5" r="464.5585270610771"/><text y="-464.5585270610771" dy="0.35em" stroke="#fff" stroke-width="5">10</text><text y="-464.5585270610771" dy="0.35em" stroke="none" stroke-width="5" fill="#000">10</text></g></g><g><g><g transform="translate(-40,-90)"><rect width="18" height="18" fill="#D4AFCD"/><text x="24" y="9" dy="0.35em">Absorb</text></g><g transform="translate(-40,-70)"><rect width="18" height="18" fill="#FF69EB"/><text x="24" y="9" dy="0.35em">Planning</text></g><g transform="translate(-40,-50)"><rect width="18" height="18" fill="#54DEFD"/><text x="24" y="9" dy="0.35em">Systems</text></g><g transform="translate(-40,-30)"><rect width="18" height="18" fill="#DE1A1A"/><text x="24" y="9" dy="0.35em">Chores</text></g><g transform="translate(-40,-10)"><rect width="18" height="18" fill="#49306B"/><text x="24" y="9" dy="0.35em">Recreation</text></g><g transform="translate(-40,10)"><rect width="18" height="18" fill="#F45D01"/><text x="24" y="9" dy="0.35em">Working</text></g><g transform="translate(-40,30)"><rect width="18" height="18" fill="#EEB902"/><text x="24" y="9" dy="0.35em">School</text></g><g transform="translate(-40,50)"><rect width="18" height="18" fill="#97CC04"/><text x="24" y="9" dy="0.35em">N_A</text></g><g transform="translate(-40,70)"><rect width="18" height="18" fill="#2D7DD2"/><text x="24" y="9" dy="0.35em">Motivated</text></g></g></g></svg>