<svg viewBox="0,0,1152,1152" width="1152" height="1152" style="max-width: 100%; height: auto; height: intrinsic;" font-family="sans-serif" font-size="10" xmlns="http://www.w3.org/2000/svg" xmlns:xlink="http://www.w3.org/1999/xlink"><a transform="translate(665,775)"><rect fill="#4e79a7" fill-opacity="0.6" width="250" height="375"/><title>Chores/NA
192.4</title><clipPath id="O-b751233c85205-clip-0"><rect width="250" height="375"/></clipPath><text clip-path="url(#O-b751233c85205-clip-0)"><tspan x="3" y="1.1em">NA</tspan><tspan x="3" y="2.3000000000000003em" fill-opacity="0.7">192.4</tspan></text></a><a transform="translate(2,775)"><rect fill="#f28e2c" fill-opacity="0.6" width="389" height="375"/><title>Planning/NA
298.333</title><clipPath id="O-b751233c85205-clip-1"><rect width="389" height="375"/></clipPath><text clip-path="url(#O-b751233c85205-clip-1)"><tspan x="3" y="1.1em">NA</tspan><tspan x="3" y="2.3000000000000003em" fill-opacity="0.7">298.333</tspan></text></a><a transform="translate(563,2)"><rect fill="#e15759" fill-opacity="0.6" width="300" height="431"/><title>School/340
263.633</title><clipPath id="O-b751233c85205-clip-2"><rect width="300" height="431"/></clipPath><text clip-path="url(#O-b751233c85205-clip-2)"><tspan x="3" y="1.1em">340</tspan><tspan x="3" y="2.3000000000000003em" fill-opacity="0.7">263.633</tspan></text></a><a transform="translate(2,432)"><rect fill="#e15759" fill-opacity="0.6" width="560" height="340"/><title>School/576
387.333</title><clipPath id="O-b751233c85205-clip-3"><rect width="560" height="340"/></clipPath><text clip-path="url(#O-b751233c85205-clip-3)"><tspan x="3" y="1.1em">576</tspan><tspan x="3" y="2.3000000000000003em" fill-opacity="0.7">387.333</tspan></text></a><a transform="translate(563,434)"><rect fill="#e15759" fill-opacity="0.6" width="296" height="338"/><title>School/639
204.45</title><clipPath id="O-b751233c85205-clip-4"><rect width="296" height="338"/></clipPath><text clip-path="url(#O-b751233c85205-clip-4)"><tspan x="3" y="1.1em">639</tspan><tspan x="3" y="2.3000000000000003em" fill-opacity="0.7">204.45</tspan></text></a><a transform="translate(2,2)"><rect fill="#e15759" fill-opacity="0.6" width="560" height="429"/><title>School/640
487.65</title><clipPath id="O-b751233c85205-clip-5"><rect width="560" height="429"/></clipPath><text clip-path="url(#O-b751233c85205-clip-5)"><tspan x="3" y="1.1em">640</tspan><tspan x="3" y="2.3000000000000003em" fill-opacity="0.7">487.65</tspan></text></a><a transform="translate(860,434)"><rect fill="#e15759" fill-opacity="0.6" width="290" height="338"/><title>School/mastml
199.7</title><clipPath id="O-b751233c85205-clip-6"><rect width="290" height="338"/></clipPath><text clip-path="url(#O-b751233c85205-clip-6)"><tspan x="3" y="1.1em">mastml</tspan><tspan x="3" y="2.3000000000000003em" fill-opacity="0.7">199.7</tspan></text></a><a transform="translate(864,2)"><rect fill="#e15759" fill-opacity="0.6" width="286" height="431"/><title>School/NA
250.367</title><clipPath id="O-b751233c85205-clip-7"><rect width="286" height="431"/></clipPath><text clip-path="url(#O-b751233c85205-clip-7)"><tspan x="3" y="1.1em">NA</tspan><tspan x="3" y="2.3000000000000003em" fill-opacity="0.7">250.367</tspan></text></a><a transform="translate(918,775)"><rect fill="#76b7b2" fill-opacity="0.6" width="232" height="225"/><title>Working/coding test
107.117</title><clipPath id="O-b751233c85205-clip-8"><rect width="232" height="225"/></clipPath><text clip-path="url(#O-b751233c85205-clip-8)"><tspan x="3" y="1.1em">coding test</tspan><tspan x="3" y="2.3000000000000003em" fill-opacity="0.7">107.117</tspan></text></a><a transform="translate(918,1001)"><rect fill="#76b7b2" fill-opacity="0.6" width="151" height="149"/><title>Working/job apps
46.483</title><clipPath id="O-b751233c85205-clip-9"><rect width="151" height="149"/></clipPath><text clip-path="url(#O-b751233c85205-clip-9)"><tspan x="3" y="1.1em">job apps</tspan><tspan x="3" y="2.3000000000000003em" fill-opacity="0.7">46.483</tspan></text></a><a transform="translate(1070,1001)"><rect fill="#76b7b2" fill-opacity="0.6" width="80" height="149"/><title>Working/NA
25.017</title><clipPath id="O-b751233c85205-clip-10"><rect width="80" height="149"/></clipPath><text clip-path="url(#O-b751233c85205-clip-10)"><tspan x="3" y="1.1em">NA</tspan><tspan x="3" y="2.3000000000000003em" fill-opacity="0.7">25.017</tspan></text></a><a transform="translate(625,1010)"><rect fill="#59a14f" fill-opacity="0.6" width="37" height="140"/><title>NA/distracted things3 possible apis
11.217</title><clipPath id="O-b751233c85205-clip-11"><rect width="37" height="140"/></clipPath><text clip-path="url(#O-b751233c85205-clip-11)"><tspan x="3" y="1.1em">distracted things3 possible apis</tspan><tspan x="3" y="2.3000000000000003em" fill-opacity="0.7">11.217</tspan></text></a><a transform="translate(394,1010)"><rect fill="#59a14f" fill-opacity="0.6" width="116" height="140"/><title>NA/getting moving
33.55</title><clipPath id="O-b751233c85205-clip-12"><rect width="116" height="140"/></clipPath><text clip-path="url(#O-b751233c85205-clip-12)"><tspan x="3" y="1.1em">getting moving</tspan><tspan x="3" y="2.3000000000000003em" fill-opacity="0.7">33.55</tspan></text></a><a transform="translate(511,1010)"><rect fill="#59a14f" fill-opacity="0.6" width="113" height="140"/><title>NA/getting moving _ quarters
32.8</title><clipPath id="O-b751233c85205-clip-13"><rect width="113" height="140"/></clipPath><text clip-path="url(#O-b751233c85205-clip-13)"><tspan x="3" y="1.1em">getting moving _ quarters</tspan><tspan x="3" y="2.3000000000000003em" fill-opacity="0.7">32.8</tspan></text></a><a transform="translate(394,775)"><rect fill="#59a14f" fill-opacity="0.6" width="268" height="234"/><title>NA/NA
129</title><clipPath id="O-b751233c85205-clip-14"><rect width="268" height="234"/></clipPath><text clip-path="url(#O-b751233c85205-clip-14)"><tspan x="3" y="1.1em">NA</tspan><tspan x="3" y="2.3000000000000003em" fill-opacity="0.7">129</tspan></text></a></svg>